<?xml version="1.0" encoding="UTF-8"?>
<svg width="20px" height="20px" viewBox="0 0 20 20" version="1.1" xmlns="http://www.w3.org/2000/svg" xmlns:xlink="http://www.w3.org/1999/xlink">
    <title>F9EAA229-71C2-4828-AFF1-74AA87A02332</title>
    <g id="Page-1" stroke="none" stroke-width="1" fill="none" fill-rule="evenodd">
        <g id="adding-new-API-Calls" transform="translate(-1008.000000, -394.000000)" fill-rule="nonzero">
            <g id="Dropdown/Select/Default-Copy-20" transform="translate(998.000000, 384.000000)">
                <g id="Logo/Circle" transform="translate(10.000000, 10.000000)">
                    <path d="M1.51202749,16.4269231 L2.39404353,17.9615385 C2.57731959,18.2846154 2.84077892,18.5384615 3.15005727,18.7230769 L6.30011455,13.2307692 L0,13.2307692 C0,13.5884615 0.0916380298,13.9461538 0.274914089,14.2692308 L1.51202749,16.4269231 Z" id="Path" fill="#0066DA"></path>
                    <path d="M10,6.76923077 L6.84994273,1.27692308 C6.54066438,1.46153846 6.27720504,1.71538462 6.09392898,2.03846154 L0.274914089,12.1923077 C0.0950087054,12.5084172 0.000239533318,12.8663987 0,13.2307692 L6.30011455,13.2307692 L10,6.76923077 Z" id="Path" fill="#00AC47"></path>
                    <path d="M16.8499427,18.7230769 C17.1592211,18.5384615 17.4226804,18.2846154 17.6059565,17.9615385 L17.9725086,17.3269231 L19.7250859,14.2692308 C19.908362,13.9461538 20,13.5884615 20,13.2307692 L13.6994273,13.2307692 L15.0400916,15.8846154 L16.8499427,18.7230769 Z" id="Path" fill="#EA4335"></path>
                    <path d="M10,6.76923077 L13.1500573,1.27692308 C12.8407789,1.09230769 12.4856816,1 12.1191294,1 L7.88087056,1 C7.51431844,1 7.15922108,1.10384615 6.84994273,1.27692308 L10,6.76923077 Z" id="Path" fill="#00832D"></path>
                    <path d="M13.6998855,13.2307692 L6.30011455,13.2307692 L3.15005727,18.7230769 C3.45933562,18.9076923 3.81443299,19 4.18098511,19 L15.8190149,19 C16.185567,19 16.5406644,18.8961538 16.8499427,18.7230769 L13.6998855,13.2307692 Z" id="Path" fill="#2684FC"></path>
                    <path d="M16.8155785,7.11538462 L13.906071,2.03846154 C13.722795,1.71538462 13.4593356,1.46153846 13.1500573,1.27692308 L10,6.76923077 L13.6998855,13.2307692 L19.9885452,13.2307692 C19.9885452,12.8730769 19.8969072,12.5153846 19.7136312,12.1923077 L16.8155785,7.11538462 Z" id="Path" fill="#FFBA00"></path>
                </g>
            </g>
        </g>
    </g>
</svg>